<?xml version="1.0" encoding="UTF-8" standalone="no"?>
<svg width="60px" height="19px" viewBox="0 0 60 19" version="1.1" xmlns="http://www.w3.org/2000/svg" xmlns:xlink="http://www.w3.org/1999/xlink">
    <!-- Generator: sketchtool 3.6.1 (26313) - http://www.bohemiancoding.com/sketch -->
    <title>C443BA22-FFEE-409D-9D36-D2CFFD8CD750</title>
    <desc>Created with sketchtool.</desc>
    <defs></defs>
    <g id="Page-1" stroke="none" stroke-width="1" fill="none" fill-rule="evenodd">
        <g id="A1-首页-(1200px-or-more)" transform="translate(-180.000000, -31.000000)" fill="#DF001F">
            <g id="organisms-/-ui-menu-black-button" transform="translate(135.000000, 15.000000)">
                <g id="logo" transform="translate(15.000000, 10.000000)">
                    <path d="M62.5061037,9 C59.4660479,9.00219149 57.0021267,11.5412293 57,14.673966 L57,20.5783871 C57,21.2806045 57.5524183,21.8498641 58.2338608,21.8498641 C58.9153033,21.8498641 59.4677215,21.2806045 59.4677215,20.5783871 L59.4677215,14.673966 C59.5259901,12.989227 60.8682412,11.6544739 62.5041758,11.6544739 C64.1401104,11.6544739 65.4823615,12.989227 65.54063,14.673966 L65.54063,20.5783871 C65.54063,21.2806045 66.0930483,21.8498641 66.7744908,21.8498641 C67.4559333,21.8498641 68.0083516,21.2806045 68.0083516,20.5783871 L68.0083516,14.673966 C68.0062282,11.5427788 65.5446536,9.00438158 62.5061037,9 L62.5061037,9 Z M88.7642033,9 C88.0827608,9 87.5303425,9.56925963 87.5303425,10.271477 L87.5303425,16.1758981 C87.5699258,17.3203841 86.9999941,18.3958295 86.0442187,18.9801727 C85.0884434,19.5645159 83.8993332,19.5645159 82.9435578,18.9801727 C81.9877825,18.3958295 81.4178508,17.3203841 81.457434,16.1758981 L81.457434,10.271477 C81.457434,9.56925963 80.9050157,9 80.2235733,9 C79.5421308,9 78.9897125,9.56925963 78.9897125,10.271477 L78.9897125,16.1758981 C78.9367416,18.2380943 79.9740921,20.167438 81.6988809,21.2146163 C83.4236697,22.2617946 85.5641069,22.2617946 87.2888957,21.2146163 C89.0136845,20.167438 90.051035,18.2380943 89.9980641,16.1758981 L89.9980641,10.271477 C89.9980641,9.93426031 89.8680684,9.61085517 89.6366746,9.37240698 C89.4052808,9.1339588 89.0914435,9 88.7642033,9 L88.7642033,9 Z M73.499032,9 C72.8175895,9 72.2651713,9.56925963 72.2651713,10.271477 L72.2651713,20.4909731 C72.2651713,21.1931904 72.8175895,21.76245 73.499032,21.76245 C74.1804745,21.76245 74.7328928,21.1931904 74.7328928,20.4909731 L74.7328928,10.271477 C74.7328928,9.56925963 74.1804745,9 73.499032,9 L73.499032,9 Z M52.7900419,11.3177334 L50.1883463,6.77631145 C49.7446429,6.05111182 48.8088234,5.81449855 48.0783836,6.24282703 C47.3479439,6.6711555 47.088881,7.60844559 47.4942827,8.35610524 L48.060036,9.34590233 C48.1829484,9.56852791 48.1796766,9.84017354 48.0514385,10.0597222 C47.9232005,10.2792709 47.6892044,10.4138373 47.4365528,10.4133306 L35.5672785,10.4133306 C35.3151047,10.4144523 35.0811546,10.2809602 34.9522262,10.0623815 C34.8232978,9.84380281 34.8186269,9.57274897 34.9399466,9.34978389 L35.5056999,8.3599868 C35.7848679,7.87392386 35.7856693,7.27456482 35.5078022,6.78774429 C35.2299351,6.30092375 34.7156278,6.00062551 34.1586681,6 C33.605203,6.0005876 33.0931283,6.29570269 32.8116364,6.77631145 L30.2099407,11.3177334 C29.9307727,11.8037963 29.9299713,12.4031554 30.2078384,12.8899759 C30.4857056,13.3767965 31.0000128,13.6770947 31.5569725,13.6777202 L32.1419691,13.6777202 C32.4713955,13.7024859 32.7636916,13.8999981 32.9117016,14.1978489 L37.9149625,22.8886555 C38.6422711,24.1928687 40.0105601,25 41.4942183,25 C42.9778765,25 44.3461655,24.1928687 45.0734742,22.8886555 L50.076735,14.1978489 C50.224745,13.8999981 50.5170411,13.7024859 50.8464675,13.6777202 L51.4314641,13.6777202 C51.9904854,13.681275 52.5085856,13.3826276 52.7892765,12.8950393 C53.0699673,12.4074509 53.0702594,11.8055986 52.7900419,11.3177334 L52.7900419,11.3177334 Z M45.8316606,15.0983701 L42.2947401,21.2778093 C42.1360667,21.5587413 41.8452929,21.7376293 41.5250076,21.7513592 C41.2047223,21.7376293 40.9139485,21.5587413 40.7552752,21.2778093 L37.2183546,15.0983701 C37.0507115,14.8055226 37.0505976,14.4447462 37.2180558,14.1517911 C37.3855139,13.8588359 37.6951369,13.6781499 38.0304223,13.6777202 L45.0619282,13.6777202 C45.385659,13.6986356 45.6757622,13.886579 45.8292305,14.1748175 C45.9826989,14.4630559 45.9777973,14.8107669 45.816266,15.0944886 L45.8316606,15.0983701 Z" id="5:30:5:30"></path>
                </g>
            </g>
        </g>
    </g>
</svg>