<?xml version="1.0" encoding="UTF-8" standalone="no"?>
<svg width="62px" height="62px" viewBox="0 0 62 62" version="1.1" xmlns="http://www.w3.org/2000/svg" xmlns:xlink="http://www.w3.org/1999/xlink">
    <!-- Generator: Sketch 3.7 (28169) - http://www.bohemiancoding.com/sketch -->
    <title>politics</title>
    <desc>Created with Sketch.</desc>
    <defs></defs>
    <g id="Page-1" stroke="none" stroke-width="1" fill="none" fill-rule="evenodd">
        <g id="C1-服务-(1200px-or-more)-" transform="translate(-1062.000000, -804.000000)">
            <g id="Group-2" transform="translate(1027.000000, 780.000000)">
                <g id="politics" transform="translate(30.000000, 19.000000)">
                    <rect id="Rectangle-387" x="0" y="0" width="72" height="72"></rect>
                    <path d="M36,67 C53.1208272,67 67,53.1208272 67,36 C67,18.8791728 53.1208272,5 36,5 C18.8791728,5 5,18.8791728 5,36 C5,53.1208272 18.8791728,67 36,67 Z M27.4096386,24.7951807 C27.4096386,23.3512555 28.5820049,22.1807229 30.0243474,22.1807229 L49.4455321,22.1807229 C50.8895959,22.1807229 52.060241,23.3541936 52.060241,24.7951807 C52.060241,26.2391059 50.8878746,27.4096386 49.4455321,27.4096386 L30.0243474,27.4096386 C28.5802836,27.4096386 27.4096386,26.2361678 27.4096386,24.7951807 Z M27.4096386,36 C27.4096386,34.5560748 28.5820049,33.3855422 30.0243474,33.3855422 L49.4455321,33.3855422 C50.8895959,33.3855422 52.060241,34.5590129 52.060241,36 C52.060241,37.4439252 50.8878746,38.6144578 49.4455321,38.6144578 L30.0243474,38.6144578 C28.5802836,38.6144578 27.4096386,37.4409871 27.4096386,36 Z M27.4096386,46.4578313 C27.4096386,45.0139061 28.5820049,43.8433735 30.0243474,43.8433735 L49.4455321,43.8433735 C50.8895959,43.8433735 52.060241,45.0168442 52.060241,46.4578313 C52.060241,47.9017565 50.8878746,49.0722892 49.4455321,49.0722892 L30.0243474,49.0722892 C28.5802836,49.0722892 27.4096386,47.8988184 27.4096386,46.4578313 Z M21.060241,27.4096386 C22.5041662,27.4096386 23.6746988,26.2391059 23.6746988,24.7951807 C23.6746988,23.3512555 22.5041662,22.1807229 21.060241,22.1807229 C19.6163158,22.1807229 18.4457831,23.3512555 18.4457831,24.7951807 C18.4457831,26.2391059 19.6163158,27.4096386 21.060241,27.4096386 Z M21.060241,38.6144578 C22.5041662,38.6144578 23.6746988,37.4439252 23.6746988,36 C23.6746988,34.5560748 22.5041662,33.3855422 21.060241,33.3855422 C19.6163158,33.3855422 18.4457831,34.5560748 18.4457831,36 C18.4457831,37.4439252 19.6163158,38.6144578 21.060241,38.6144578 Z M21.060241,49.0722892 C22.5041662,49.0722892 23.6746988,47.9017565 23.6746988,46.4578313 C23.6746988,45.0139061 22.5041662,43.8433735 21.060241,43.8433735 C19.6163158,43.8433735 18.4457831,45.0139061 18.4457831,46.4578313 C18.4457831,47.9017565 19.6163158,49.0722892 21.060241,49.0722892 Z" id="Rectangle-86" fill="#DF001F"></path>
                </g>
            </g>
        </g>
    </g>
</svg>