<?xml version="1.0" encoding="UTF-8" standalone="no"?>
<svg width="52px" height="65px" viewBox="0 0 52 65" version="1.1" xmlns="http://www.w3.org/2000/svg" xmlns:xlink="http://www.w3.org/1999/xlink">
    <!-- Generator: sketchtool 3.7.2 (28276) - http://www.bohemiancoding.com/sketch -->
    <title>4CE0DE00-090F-4B4F-9E03-13DCB892F993</title>
    <desc>Created with sketchtool.</desc>
    <defs></defs>
    <g id="Page-1" stroke="none" stroke-width="1" fill="none" fill-rule="evenodd">
        <g id="C1-服务-(1200px-or-more)-" transform="translate(-1068.000000, -2120.000000)">
            <g id="organisms-/-ui-menu-black-button" transform="translate(135.000000, 1983.000000)">
                <g id="Group-2" transform="translate(893.000000, 115.000000)">
                    <g id="locate" transform="translate(30.000000, 19.000000)">
                        <rect id="Rectangle-387" x="0" y="0" width="72" height="72"></rect>
                        <polyline id="Rectangle-792" stroke="#DF001F" stroke-width="6" stroke-linecap="round" stroke-linejoin="round" points="42 21 42 30 30 30 30 21 30 21"></polyline>
                        <path d="M36,30.5 L36,48" id="Line" stroke="#DF001F" stroke-width="6" stroke-linecap="round"></path>
                        <path d="M59,29.974081 C59,40.6285787 47.3782399,55.2203117 40.6570811,62.7674911 C38.1751228,65.5543368 33.8248772,65.5543368 31.3429189,62.7674911 C24.6217601,55.2203117 13,40.6285787 13,29.974081 C13,17.271091 23.2979841,6 36,6 C48.7020159,6 59,17.271091 59,29.974081 Z" id="Page-1" stroke="#DF001F" stroke-width="6" stroke-linecap="round"></path>
                    </g>
                </g>
            </g>
        </g>
    </g>
</svg>