<?xml version="1.0" encoding="UTF-8" standalone="no"?>
<svg width="64px" height="54px" viewBox="0 0 64 54" version="1.1" xmlns="http://www.w3.org/2000/svg" xmlns:xlink="http://www.w3.org/1999/xlink">
    <!-- Generator: sketchtool 3.7.2 (28276) - http://www.bohemiancoding.com/sketch -->
    <title>9AAD628A-D495-4946-973F-3EB186764D6F</title>
    <desc>Created with sketchtool.</desc>
    <defs></defs>
    <g id="Page-1" stroke="none" stroke-width="1" fill="none" fill-rule="evenodd">
        <g id="C1-服务-(1200px-or-more)-" transform="translate(-476.000000, -808.000000)">
            <g id="Group" transform="translate(442.000000, 780.000000)">
                <g id="niu-care" transform="translate(30.000000, 19.000000)">
                    <rect id="Rectangle-387" x="0" y="0" width="72" height="72"></rect>
                    <path d="M61.8135545,27.8719395 C61.678042,31.0039999 60.3197365,33.8818033 57.9898404,35.9737094 C57.9488416,36.0108894 57.9087223,36.048547 57.8700238,36.0880465 L39.3181298,54.790085 C38.3837493,55.732275 37.1249641,56.2281681 35.7956825,56.1716817 C34.5768136,56.1199025 33.4354771,55.5502634 32.5728107,54.6803868 C32.5728107,54.6803868 14.0511584,36.0108894 14.0101596,35.9741869 C11.6800606,33.8818033 10.3219581,31.0039999 10.1864455,27.8719395 C10.0555334,24.8486223 11.2133777,21.7974712 13.3630414,19.5001539 C15.5079016,17.2084307 18.4531181,15.8689941 21.4440016,15.8257425 C21.4999522,15.825265 21.5557674,15.8247874 21.6117179,15.8247874 C24.5362997,15.8247874 27.3238805,17.035083 29.6548591,18.755598 C30.5425577,19.4108536 31.3711938,20.1494061 32.1187117,20.9636149 C32.2437377,21.0997143 41.2896584,32.7831161 41.2896584,32.7831161 C41.2914851,32.7856402 41.8340089,33.562055 40.9149184,33.562055 L31.8819875,33.562055 C30.9618145,33.562055 31.506368,32.7840029 31.5070446,32.7828432 L34.6859408,28.7429076 C34.6859408,28.7429076 35.0512091,28.2804425 34.6859408,27.807335 L31.8817845,24.1749472 C31.3454849,23.4803968 30.8350294,24.0666817 30.7591884,24.1615078 L30.7486343,24.1752201 L24.5938063,31.997628 C24.5752012,32.0213686 24.5567314,32.0455186 24.5390059,32.0696686 C23.395978,33.6170405 23.304847,35.6924373 24.3472722,37.355579 C25.2153509,38.7406549 26.790693,39.5109981 28.4156261,39.5109981 L44.3568565,39.5109981 C46.0222471,39.5109981 47.6270867,38.6896944 48.4751396,37.2444482 C49.4781897,35.5352578 49.3234632,33.4646364 48.1194107,31.9455759 L39.7507823,21.1050355 C41.7088476,18.938019 44.4972402,17.0205521 47.3676305,16.2309708 C48.4051169,15.9455373 49.4810989,15.8102565 50.556269,15.8257425 C53.5468819,15.8689941 56.4918954,17.2084307 58.6369586,19.5001539 C60.7866223,21.7974712 61.9444666,24.8486223 61.8135545,27.8719395 M62.9275585,15.4172396 C59.6947414,11.9626338 55.2165348,9.94372347 50.6413111,9.87768626 C47.4237164,9.82051768 44.2765503,10.6770913 41.5279386,12.3274758 C40.8762199,12.6592991 38.3861172,14.0127209 36,16.4503672 C33.6136122,14.0127209 31.1237801,12.6592991 30.4718585,12.3274758 C27.7231792,10.6770913 24.5680298,9.82283717 21.3589596,9.87768626 C16.7834653,9.94372347 12.3050556,11.9626338 9.0721709,15.4172396 C5.83455033,18.8773712 4.09230386,23.5115052 4.29229146,28.1312448 C4.49694723,32.8546791 6.53098887,37.1932147 10.0223826,40.358703 L28.5099369,58.9962051 C30.6643364,61.1688158 33.5835734,62.2904933 36.6552368,62.105207 C39.3056813,61.9452988 41.7827266,60.7178116 43.660215,58.8246312 L60.8917579,41.4490674 L61.9776174,40.358703 C65.4688082,37.1932147 67.5030528,32.8542016 67.7077086,28.1312448 C67.9076962,23.5115052 66.1654497,18.8773712 62.9275585,15.4172396" id="Fill-1" fill="#DF001F"></path>
                </g>
            </g>
        </g>
    </g>
</svg>