<?xml version="1.0" encoding="UTF-8" standalone="no"?>
<svg width="51px" height="59px" viewBox="0 0 51 59" version="1.1" xmlns="http://www.w3.org/2000/svg" xmlns:xlink="http://www.w3.org/1999/xlink">
    <!-- Generator: sketchtool 3.7.2 (28276) - http://www.bohemiancoding.com/sketch -->
    <title>A20A39B2-2BAD-4BCD-B480-5D11DFACDBDB</title>
    <desc>Created with sketchtool.</desc>
    <defs></defs>
    <g id="Page-1" stroke="none" stroke-width="1" fill="none" fill-rule="evenodd">
        <g id="C1-服务-(1200px-or-more)-" transform="translate(-776.000000, -2124.000000)">
            <g id="organisms-/-ui-menu-black-button" transform="translate(135.000000, 1983.000000)">
                <g id="Group-2" transform="translate(600.000000, 115.000000)">
                    <g id="niu-insurence" transform="translate(30.000000, 19.000000)">
                        <rect id="Rectangle-387" x="0.276923077" y="0" width="72" height="72"></rect>
                        <path d="M36.9645767,57.7012529 L36.9645767,57.7012529 C36.1807236,58.1557594 35.3130561,57.7012529 35.3130561,57.7012529 L35.3130561,57.7012529 L18.5637237,47.9913601 L18.5639366,47.9912889 C18.5639366,47.9912889 18.5610269,47.9897924 18.5596785,47.9890798 L18.5254714,47.9691978 C18.3679201,47.8730659 17.7719931,47.445425 17.7719931,46.4735592 L17.7719931,17.3902722 C17.7719931,16.5402637 18.3799139,16.7809142 18.613544,16.9047668 L34.4847764,26.1054954 L53.7130574,37.2530911 L53.7130574,37.2530911 L53.7131994,37.2531624 L53.7549292,37.2773201 C53.9169515,37.3770863 54.5050009,37.8050835 54.5050009,38.7708208 L54.5050009,46.4735592 C54.5050009,47.4389402 53.9173773,47.8670086 53.7550711,47.9669174 L36.9645767,57.7012529 Z M43.6899578,23.7689699 L43.5996142,23.7166638 C43.3760618,23.5753521 42.8646588,23.1670943 43.5976981,22.7421614 C43.5976981,22.7421614 43.59564,22.7423752 43.5946464,22.7424464 L53.6641597,16.9044105 C53.8982866,16.7804153 54.5050009,16.5410476 54.5050009,17.3902722 L54.5050009,29.0658451 C54.5050009,29.9158535 53.8970801,29.6751318 53.6634501,29.5513504 L43.6900288,23.7690411 L43.6899578,23.7689699 Z M59.4681499,7.7844926 C58.4445634,7.19088342 57.1835145,7.19088342 56.159928,7.7844926 L36.9645767,18.9129902 C36.1806526,19.3673542 35.3130561,18.9129189 35.3130561,18.9129189 L35.3131271,18.9129902 L16.117066,7.7844926 C15.0934796,7.19088342 13.8324307,7.19088342 12.8087732,7.7844926 C11.7844061,8.37817305 11.1538462,9.4746754 11.1538462,10.661965 L11.1538462,49.4505128 C11.1538462,49.4746705 11.1568978,49.4966903 11.1581043,49.5200641 C11.1825176,50.642577 11.7692187,51.7256109 12.8087732,52.327914 L34.4847764,64.8940432 C34.9965342,65.1908478 35.5673382,65.3392857 36.1388519,65.3392857 C36.7104365,65.3392857 37.2811696,65.1908478 37.7929983,64.8940432 L59.4681499,52.327914 C60.492588,51.7343048 61.1230769,50.6378024 61.1230769,49.4505128 L61.1230769,35.7941522 L61.1230769,10.661965 C61.1230769,9.4746754 60.492588,8.37817305 59.4681499,7.7844926 L59.4681499,7.7844926 Z" id="Fill-1" fill="#DF001F"></path>
                    </g>
                </g>
            </g>
        </g>
    </g>
</svg>